<?xml version="1.0" encoding="UTF-8"?>
<svg width="26" height="26" viewBox="0 0 26 26" fill="none" xmlns="http://www.w3.org/2000/svg">
  <path
    d="M25 13C25 15.3734 24.2962 17.6934 22.9776 19.6668C21.6591 21.6402 19.7849 23.1783 17.5922 24.0865C15.3995 24.9948 12.9867 25.2324 10.6589 24.7694C8.33115 24.3064 6.19295 23.1635 4.51472 21.4853C2.83649 19.807 1.6936 17.6689 1.23058 15.3411C0.767559 13.0133 1.0052 10.6005 1.91345 8.4078C2.8217 6.21508 4.35977 4.34094 6.33316 3.02236C8.30655 1.70379 10.6266 1 13 1C14.5759 1 16.1363 1.31039 17.5922 1.91345C19.0481 2.5165 20.371 3.40041 21.4853 4.51472C22.5996 5.62902 23.4835 6.95189 24.0866 8.4078C24.6896 9.8637 25 11.4241 25 13Z"
    stroke="white" stroke-width="2" stroke-linecap="round" stroke-linejoin="round" />
  <path d="M13 5.79999V13L17.8 15.4" stroke="#2ADEF5" stroke-width="2" stroke-linecap="round"
    stroke-linejoin="round" />
</svg>
  