<?xml version="1.0" encoding="UTF-8"?>
<svg width="31" height="37" viewBox="0 0 31 37" fill="none" xmlns="http://www.w3.org/2000/svg">
  <path
    d="M30.1694 34.6875H28.7857V1.73489C28.7858 1.50711 28.743 1.28153 28.6596 1.07105C28.5762 0.860573 28.454 0.669313 28.2998 0.5082C28.1456 0.347087 27.9626 0.21928 27.7611 0.132081C27.5596 0.0448819 27.3436 2.64808e-07 27.1255 3.04826e-07H3.87549C3.6573 -0.000134807 3.44123 0.0446472 3.23962 0.131786C3.03802 0.218924 2.85484 0.34671 2.70055 0.507836C2.54627 0.668962 2.42391 0.860269 2.34047 1.07082C2.25704 1.28136 2.21416 1.50702 2.21429 1.73489V34.6875H0.830603C0.610314 34.6875 0.399046 34.7789 0.243278 34.9416C0.0875097 35.1042 0 35.3249 0 35.5549L0 37H31V35.5549C31 35.441 30.9785 35.3282 30.9368 35.223C30.895 35.1177 30.8339 35.0221 30.7567 34.9416C30.6796 34.861 30.588 34.7971 30.4873 34.7535C30.3865 34.7099 30.2785 34.6875 30.1694 34.6875ZM8.85714 5.49244C8.85714 5.26238 8.94465 5.04175 9.10042 4.87907C9.25619 4.71639 9.46746 4.625 9.68775 4.625H12.4561C12.6764 4.625 12.8877 4.71639 13.0434 4.87907C13.1992 5.04175 13.2867 5.26238 13.2867 5.49244V8.38256C13.2867 8.49656 13.2652 8.60944 13.2234 8.71475C13.1816 8.82006 13.1203 8.91573 13.0431 8.99629C12.9658 9.07686 12.8742 9.14073 12.7733 9.18427C12.6724 9.2278 12.5643 9.25014 12.4551 9.25H9.68775C9.46746 9.25 9.25619 9.15861 9.10042 8.99593C8.94465 8.83325 8.85714 8.61262 8.85714 8.38256V5.49244ZM8.85714 12.4299C8.85714 12.1999 8.94465 11.9792 9.10042 11.8166C9.25619 11.6539 9.46746 11.5625 9.68775 11.5625H12.4561C12.6764 11.5625 12.8877 11.6539 13.0434 11.8166C13.1992 11.9792 13.2867 12.1999 13.2867 12.4299V15.3211C13.2867 15.5511 13.1992 15.7718 13.0434 15.9345C12.8877 16.0971 12.6764 16.1885 12.4561 16.1885H9.68775C9.57859 16.1885 9.4705 16.1661 9.36966 16.1224C9.26882 16.0787 9.17721 16.0148 9.10007 15.9341C9.02293 15.8534 8.96177 15.7577 8.92009 15.6523C8.8784 15.547 8.85701 15.4341 8.85714 15.3201V12.4299ZM12.4551 23.125H9.68775C9.46746 23.125 9.25619 23.0336 9.10042 22.8709C8.94465 22.7083 8.85714 22.4876 8.85714 22.2576V19.3674C8.85714 19.1374 8.94465 18.9167 9.10042 18.7541C9.25619 18.5914 9.46746 18.5 9.68775 18.5H12.4561C12.6764 18.5 12.8877 18.5914 13.0434 18.7541C13.1992 18.9167 13.2867 19.1374 13.2867 19.3674V22.2586C13.2866 22.3725 13.265 22.4853 13.2231 22.5905C13.1812 22.6957 13.1199 22.7912 13.0427 22.8717C12.9655 22.9521 12.8739 23.0159 12.773 23.0594C12.6722 23.1028 12.5642 23.1251 12.4551 23.125ZM17.7143 34.6875H13.2857V28.6174C13.2857 28.3874 13.3732 28.1667 13.529 28.0041C13.6848 27.8414 13.896 27.75 14.1163 27.75H16.8847C17.105 27.75 17.3162 27.8414 17.472 28.0041C17.6278 28.1667 17.7153 28.3874 17.7153 28.6174L17.7143 34.6875ZM22.1429 22.2576C22.1429 22.4876 22.0553 22.7083 21.8996 22.8709C21.7438 23.0336 21.5325 23.125 21.3123 23.125H18.5449C18.3246 23.125 18.1133 23.0336 17.9576 22.8709C17.8018 22.7083 17.7143 22.4876 17.7143 22.2576V19.3674C17.7143 19.1374 17.8018 18.9167 17.9576 18.7541C18.1133 18.5914 18.3246 18.5 18.5449 18.5H21.3132C21.4223 18.5 21.5303 18.5224 21.6311 18.566C21.7319 18.6096 21.8234 18.6735 21.9006 18.7541C21.9777 18.8346 22.0389 18.9302 22.0806 19.0355C22.1224 19.1407 22.1438 19.2535 22.1438 19.3674L22.1429 22.2576ZM22.1429 15.3201C22.1429 15.5501 22.0553 15.7708 21.8996 15.9334C21.7438 16.0961 21.5325 16.1875 21.3123 16.1875H18.5449C18.3246 16.1875 18.1133 16.0961 17.9576 15.9334C17.8018 15.7708 17.7143 15.5501 17.7143 15.3201V12.4299C17.7143 12.1999 17.8018 11.9792 17.9576 11.8166C18.1133 11.6539 18.3246 11.5625 18.5449 11.5625H21.3132C21.4223 11.5625 21.5303 11.5849 21.6311 11.6285C21.7319 11.6721 21.8234 11.736 21.9006 11.8166C21.9777 11.8971 22.0389 11.9927 22.0806 12.098C22.1224 12.2032 22.1438 12.316 22.1438 12.4299L22.1429 15.3201ZM22.1429 8.38256C22.1429 8.49647 22.1214 8.60927 22.0796 8.71451C22.0379 8.81976 21.9767 8.91538 21.8996 8.99593C21.8225 9.07648 21.7309 9.14038 21.6301 9.18397C21.5293 9.22756 21.4213 9.25 21.3123 9.25H18.5449C18.3246 9.25 18.1133 9.15861 17.9576 8.99593C17.8018 8.83325 17.7143 8.61262 17.7143 8.38256V5.49244C17.7143 5.26238 17.8018 5.04175 17.9576 4.87907C18.1133 4.71639 18.3246 4.625 18.5449 4.625H21.3132C21.4223 4.625 21.5303 4.64744 21.6311 4.69103C21.7319 4.73462 21.8234 4.79852 21.9006 4.87907C21.9777 4.95962 22.0389 5.05524 22.0806 5.16049C22.1224 5.26573 22.1438 5.37853 22.1438 5.49244L22.1429 8.38256Z"
    fill="#2ADEF5" />
</svg>
  