<?xml version="1.0" encoding="UTF-8"?>
<svg width="41" height="36" viewBox="0 0 41 36" fill="none" xmlns="http://www.w3.org/2000/svg">
  <path
    d="M24.463 29.863C24.1194 29.8642 23.7902 30.0153 23.5472 30.2835C23.3043 30.5517 23.1673 30.9151 23.1663 31.2944C23.1652 31.7824 22.9891 32.2501 22.6765 32.5952C22.3638 32.9403 21.94 33.1347 21.4979 33.1359H4.26189C3.81973 33.1347 3.39597 32.9403 3.08332 32.5952C2.77066 32.2501 2.59455 31.7824 2.5935 31.2944V4.70274C2.5949 4.21494 2.77116 3.74758 3.08378 3.40279C3.3964 3.058 3.81995 2.86381 4.26189 2.86266H21.4979C21.94 2.86381 22.3638 3.0582 22.6765 3.40331C22.9891 3.74841 23.1652 4.21614 23.1663 4.70419C23.1663 5.08399 23.303 5.44824 23.5463 5.71681C23.7896 5.98537 24.1196 6.13625 24.4637 6.13625C24.8078 6.13625 25.1378 5.98537 25.3811 5.71681C25.6244 5.44824 25.7611 5.08399 25.7611 4.70419C25.7607 3.45668 25.3116 2.26037 24.5124 1.37825C23.7132 0.496128 22.6294 0.00038557 21.4992 0H4.26189C3.1319 0.000385313 2.04827 0.495928 1.24913 1.37774C0.449984 2.25955 0.000698547 3.45548 0 4.70274V31.2958C0.000349317 32.5433 0.44948 33.7396 1.24866 34.6217C2.04785 35.5039 3.13167 35.9996 4.26189 36H21.4979C22.6281 35.9996 23.7119 35.5039 24.5111 34.6217C25.3103 33.7396 25.7594 32.5433 25.7598 31.2958C25.7591 30.9163 25.6223 30.5525 25.3793 30.284C25.1363 30.0155 24.8068 29.8642 24.463 29.863Z"
    fill="#2ADEF5" />
  <path
    d="M31.6004 7.98578C31.4795 7.8518 31.3357 7.74575 31.1773 7.67382C31.0189 7.60189 30.8492 7.56553 30.6779 7.56686C30.5064 7.56412 30.3363 7.59984 30.1777 7.67185C30.0191 7.74386 29.8755 7.85066 29.7554 7.98578C29.6343 8.11831 29.5381 8.27601 29.4725 8.44978C29.4069 8.62354 29.3731 8.80993 29.3731 8.99819C29.3731 9.18644 29.4069 9.37283 29.4725 9.5466C29.5381 9.72036 29.6343 9.87806 29.7554 10.0106L35.7964 16.5767H12.0582C11.7141 16.5767 11.3841 16.7276 11.1407 16.9961C10.8974 17.2647 10.7607 17.6289 10.7607 18.0087C10.7607 18.3885 10.8974 18.7528 11.1407 19.0214C11.3841 19.2899 11.7141 19.4408 12.0582 19.4408H35.8346L29.9412 25.9996C29.7007 26.2697 29.566 26.6333 29.566 27.012C29.566 27.3907 29.7007 27.7543 29.9412 28.0244L29.9504 28.0346C30.1969 28.2888 30.5211 28.4312 30.8584 28.4332C31.03 28.4368 31.2004 28.4015 31.3591 28.3295C31.5178 28.2574 31.6614 28.1501 31.7809 28.0142L39.4349 19.5863C39.6245 19.3979 39.7762 19.1676 39.88 18.9104C39.9838 18.6531 40.0374 18.3747 40.0374 18.0931C40.0374 17.8115 39.9838 17.5331 39.88 17.2758C39.7762 17.0186 39.6245 16.7883 39.4349 16.5999L31.6004 7.98578Z"
    fill="#2ADEF5" />
</svg>
  