<?xml version="1.0" encoding="UTF-8"?>
<svg width="8" height="9" viewBox="0 0 8 9" fill="none" xmlns="http://www.w3.org/2000/svg">
  <path
    d="M5.25398 0.282088L5.25421 0.282498L5.25442 0.282863L5.25489 0.283692L5.44414 0.372396L5.2549 0.283695L5.25324 0.280795L5.25398 0.282088ZM5.25398 0.282088L5.25468 0.28139L5.25398 0.282088ZM4.47444 8.5H4.47426C3.92183 8.49955 3.37548 8.38338 2.87007 8.15882C2.36464 7.93425 1.91115 7.60618 1.53863 7.19539C1.1661 6.78459 0.882724 6.30011 0.706731 5.77279C0.530735 5.24546 0.466026 4.68699 0.516774 4.13303C0.567523 3.57908 0.732601 3.04194 1.00137 2.55591C1.27014 2.06988 1.63666 1.64569 2.0774 1.31029C2.51814 0.974889 3.02345 0.73562 3.56106 0.607611C3.85452 0.537735 4.15413 0.501838 4.45409 0.500069C3.94921 0.942993 3.55977 1.509 3.32671 2.14904C3.00065 3.04447 3.00164 4.02709 3.32952 4.92185C3.65742 5.81666 4.29112 6.56593 5.11826 7.03554C5.70927 7.37109 6.37142 7.54816 7.04181 7.5563C6.78204 7.77724 6.49434 7.96431 6.18541 8.11226C5.65091 8.36824 5.0663 8.50069 4.47444 8.5Z"
    stroke="#21357C" />
</svg>
  