<?xml version="1.0" encoding="UTF-8"?>
<svg width="12" height="13" viewBox="0 0 12 13" fill="none" xmlns="http://www.w3.org/2000/svg">
  <path
    d="M6.71078 13C7.71111 13.0011 8.69902 12.7856 9.60207 12.3691C10.5051 11.9526 11.3004 11.3458 11.9296 10.5932C11.9703 10.5447 11.9946 10.4853 11.9992 10.4229C12.0038 10.3606 11.9885 10.2985 11.9554 10.2448C11.9223 10.1912 11.873 10.1487 11.8141 10.1231C11.7553 10.0975 11.6897 10.09 11.6263 10.1017C10.4016 10.329 9.13338 10.128 8.04768 9.53439C6.96199 8.94081 6.12943 7.99331 5.69849 6.86085C5.26755 5.72838 5.26624 4.4846 5.69479 3.35129C6.12334 2.21798 6.9539 1.26883 8.03834 0.673109C8.09455 0.642051 8.13951 0.594982 8.1671 0.53831C8.19468 0.481638 8.20356 0.418115 8.1925 0.356389C8.18145 0.294662 8.15102 0.237731 8.10534 0.193345C8.05966 0.148959 8.00096 0.119274 7.93722 0.108331C7.01934 -0.0559155 6.07616 -0.0331822 5.16786 0.175081C4.25957 0.383344 3.4061 0.772563 2.66192 1.3179C1.91774 1.86324 1.29918 2.55273 0.845728 3.34237C0.392272 4.132 0.113871 5.00445 0.0282887 5.90405C-0.0572938 6.80364 0.0518216 7.71062 0.348672 8.56712C0.645523 9.42361 1.12359 10.2108 1.75237 10.8785C2.38115 11.5462 3.14684 12.0797 4.00057 12.445C4.8543 12.8102 5.77734 12.9993 6.71078 13Z"
    fill="#6B33A4" />
</svg>
  