<?xml version="1.0" encoding="UTF-8"?>
<svg width="20" height="22" viewBox="0 0 20 22" fill="none" xmlns="http://www.w3.org/2000/svg">
  <path
    d="M15.9 7.09684C15.9 5.51615 15.2721 4.0002 14.1543 2.88248C13.0366 1.76477 11.5207 1.13684 9.93999 1.13684C8.3593 1.13684 6.84335 1.76477 5.72564 2.88248C4.60792 4.0002 3.98 5.51615 3.98 7.09684C3.98 14.0502 1 16.0368 1 16.0368H18.88C18.88 16.0368 15.9 14.0502 15.9 7.09684Z"
    stroke="#21357C" stroke-width="2" stroke-linecap="round" stroke-linejoin="round" />
  <path
    d="M11.6586 20.0102C11.484 20.3112 11.2333 20.5611 10.9317 20.7348C10.6301 20.9085 10.2882 21 9.94014 21C9.5921 21 9.25017 20.9085 8.94857 20.7348C8.64698 20.5611 8.39632 20.3112 8.22168 20.0102"
    stroke="#21357C" stroke-width="2" stroke-linecap="round" stroke-linejoin="round" />
</svg>
  