<?xml version="1.0" encoding="UTF-8"?>
<svg width="20" height="24" viewBox="0 0 20 24" fill="none" xmlns="http://www.w3.org/2000/svg">
  <path
    d="M15.9 9.09684C15.9 7.51615 15.2721 6.0002 14.1543 4.88248C13.0366 3.76477 11.5207 3.13684 9.93999 3.13684C8.3593 3.13684 6.84335 3.76477 5.72564 4.88248C4.60792 6.0002 3.98 7.51615 3.98 9.09684C3.98 16.0502 1 18.0368 1 18.0368H18.88C18.88 18.0368 15.9 16.0502 15.9 9.09684Z"
    stroke="#BBBBBB" stroke-width="2" stroke-linecap="round" stroke-linejoin="round" />
  <path
    d="M11.6586 22.0102C11.484 22.3112 11.2333 22.5611 10.9317 22.7348C10.6301 22.9085 10.2882 23 9.94014 23C9.5921 23 9.25017 22.9085 8.94857 22.7348C8.64698 22.5611 8.39632 22.3112 8.22168 22.0102"
    stroke="#BBBBBB" stroke-width="2" stroke-linecap="round" stroke-linejoin="round" />
  <circle cx="15.8213" cy="4" r="3.5" fill="#2ADEF5" stroke="white" />
</svg>
  