<?xml version="1.0" encoding="UTF-8"?>
<svg width="25" height="25" viewBox="0 0 25 25" fill="none" xmlns="http://www.w3.org/2000/svg">
  <path d="M23.4789 7.81152C23.0869 6.56954 22.4325 5.42637 21.5599 4.45952C21.486 4.38506 21.3979 4.3261 21.3009 4.28609C21.2039 4.24608 21.0999 4.22583 20.9949 4.22652C20.89 4.22583 20.786 4.24608 20.6889 4.28609C20.5919 4.3261 20.5039 4.38506 20.4299 4.45952C20.2815 4.6103 20.1982 4.81341 20.1982 5.02502C20.1982 5.23662 20.2815 5.43974 20.4299 5.59052C21.1407 6.40436 21.6728 7.35823 21.9919 8.39052C22.4097 9.57283 22.6343 10.8148 22.6569 12.0685C22.6569 12.2435 22.6509 12.5115 22.6449 12.6575C22.6391 12.762 22.6548 12.8665 22.6909 12.9647C22.727 13.0629 22.7828 13.1527 22.8549 13.2285C22.9251 13.3065 23.0104 13.3693 23.1057 13.4133C23.2009 13.4574 23.3041 13.4816 23.4089 13.4845H23.4439C23.65 13.4847 23.8482 13.4054 23.9972 13.2631C24.1463 13.1207 24.2346 12.9264 24.2439 12.7205C24.2499 12.5395 24.2559 12.2485 24.2559 12.0615C24.2311 10.6119 23.9686 9.17615 23.4789 7.81152Z" fill="black"/>
  <path d="M5.53765 3.64953C5.70507 3.64887 5.86805 3.5957 6.00365 3.49753C7.79311 2.23573 9.93419 1.56892 12.1237 1.59153C14.5572 1.61362 16.9042 2.49764 18.7477 4.08653C18.8926 4.20514 19.0734 4.27107 19.2607 4.27353C19.3774 4.27338 19.4926 4.2477 19.5983 4.19829C19.704 4.14889 19.7977 4.07695 19.8727 3.98753C20.0065 3.8242 20.071 3.61493 20.0523 3.40462C20.0336 3.1943 19.9332 2.99969 19.7727 2.86253C17.6391 1.03499 14.9278 0.0211764 12.1187 0.000527124C9.59524 -0.0230752 7.12815 0.74647 5.06565 2.20053C4.92809 2.29967 4.82558 2.43996 4.77294 2.60115C4.72029 2.76234 4.72022 2.93609 4.77274 3.09732C4.82526 3.25855 4.92765 3.39892 5.06513 3.49817C5.20262 3.59743 5.36809 3.65043 5.53765 3.64953Z" fill="black"/>
  <path d="M1.597 12.0665C1.59641 9.52237 2.51799 7.06423 4.191 5.14753C4.32871 4.9872 4.39737 4.7789 4.38201 4.56812C4.36665 4.35733 4.2685 4.16119 4.109 4.02253C3.96422 3.89411 3.77753 3.82299 3.584 3.82253C3.47014 3.8222 3.35756 3.84652 3.25399 3.89382C3.15042 3.94112 3.05832 4.01027 2.984 4.09653C1.05945 6.30564 -0.000504672 9.13667 1.80262e-07 12.0665C0.0222966 13.8556 0.326012 15.6299 0.9 17.3245C0.949388 17.4885 1.05046 17.6321 1.18815 17.7339C1.32584 17.8358 1.49276 17.8903 1.664 17.8895C1.74296 17.8893 1.82146 17.8775 1.897 17.8545C2.09894 17.7935 2.26859 17.6551 2.369 17.4695C2.41858 17.3775 2.44926 17.2765 2.45922 17.1724C2.46918 17.0683 2.45823 16.9633 2.427 16.8635C1.90053 15.3179 1.62045 13.6992 1.597 12.0665Z" fill="black"/>
  <path d="M17.9313 4.76852C16.3734 3.39966 14.3681 2.64901 12.2943 2.65852C10.9768 2.6286 9.66755 2.8726 8.44934 3.37507C7.23112 3.87754 6.13053 4.62752 5.21728 5.57752C4.38694 6.47388 3.75237 7.53334 3.35398 8.68841C2.95558 9.84349 2.80209 11.0689 2.90328 12.2865C2.98468 13.5924 3.16588 14.8902 3.44528 16.1685C3.8016 17.776 3.90284 19.4296 3.74528 21.0685C3.73183 21.2554 3.78217 21.4413 3.88806 21.5959C3.99396 21.7505 4.14915 21.8646 4.32828 21.9195C4.39614 21.941 4.46714 21.9508 4.53828 21.9485C4.7419 21.9472 4.93751 21.869 5.08587 21.7295C5.23424 21.5901 5.3244 21.3997 5.33828 21.1965C5.51316 19.4051 5.40483 17.5973 5.01728 15.8395C4.75474 14.628 4.58326 13.3986 4.50428 12.1615C4.42016 11.1626 4.54466 10.1572 4.86985 9.20897C5.19504 8.26077 5.71383 7.39054 6.39328 6.65352C7.15761 5.86374 8.07773 5.24142 9.09528 4.82604C10.1128 4.41065 11.2056 4.21126 12.3043 4.24052C13.9922 4.2335 15.6241 4.84544 16.8913 5.96052C18.2771 7.22952 19.2685 8.87046 19.7473 10.6875C20.4422 13.4384 20.6219 16.2942 20.2773 19.1105C20.2582 19.3211 20.3227 19.5308 20.4569 19.6943C20.591 19.8578 20.784 19.962 20.9943 19.9845C21.0173 19.9845 21.0463 19.9905 21.0703 19.9905C21.269 19.9913 21.4608 19.9174 21.6076 19.7835C21.7545 19.6496 21.8457 19.4655 21.8633 19.2675C22.2302 16.2494 22.0304 13.1893 21.2743 10.2445C20.7117 8.13486 19.5506 6.23305 17.9313 4.76852Z" fill="black"/>
  <path d="M18.9694 12.7945C18.7304 10.8359 17.9054 8.9952 16.6024 7.51352C16.0331 6.89204 15.3403 6.39633 14.5683 6.05812C13.7963 5.71992 12.9622 5.54669 12.1194 5.54952C11.029 5.54436 9.95124 5.78355 8.96538 6.24952C8.85911 6.30091 8.76543 6.37502 8.69095 6.4666C8.61648 6.55818 8.56303 6.66501 8.53438 6.77952C8.50651 6.89676 8.50549 7.01879 8.53139 7.13648C8.5573 7.25418 8.60946 7.3645 8.68397 7.45921C8.75849 7.55392 8.85344 7.63057 8.96174 7.68344C9.07003 7.7363 9.18887 7.76402 9.30938 7.76452C9.42803 7.76294 9.54511 7.73707 9.65338 7.68852C10.4238 7.33048 11.2639 7.14743 12.1134 7.15252C12.7581 7.15238 13.3954 7.2908 13.982 7.55839C14.5686 7.82598 15.0909 8.21651 15.5134 8.70352C16.5435 9.94195 17.1933 11.452 17.3844 13.0515C17.6282 14.4596 17.7665 15.8839 17.7984 17.3125C17.8013 18.7375 17.7078 20.1611 17.5184 21.5735C17.5013 21.6774 17.5054 21.7837 17.5305 21.886C17.5556 21.9882 17.6011 22.0843 17.6644 22.1685C17.7882 22.3399 17.9748 22.4553 18.1834 22.4895C18.2237 22.4964 18.2645 22.5004 18.3054 22.5015C18.496 22.5026 18.6806 22.4348 18.8252 22.3106C18.9698 22.1864 19.0647 22.0141 19.0924 21.8255C19.3002 20.329 19.4004 18.8194 19.3924 17.3085C19.3682 15.7952 19.2268 14.286 18.9694 12.7945Z" fill="black"/>
  <path d="M8.00316 9.06452C8.08512 8.94444 8.13281 8.80429 8.1411 8.65913C8.14939 8.51397 8.11796 8.3693 8.0502 8.24067C7.98244 8.11203 7.8809 8.0043 7.7565 7.92904C7.6321 7.85378 7.48955 7.81384 7.34416 7.81352C7.21467 7.81325 7.08706 7.84441 6.97227 7.90433C6.85749 7.96425 6.75896 8.05113 6.68516 8.15752C5.80162 9.53782 5.49934 11.2113 5.84416 12.8135C6.50658 15.9741 6.69131 19.2162 6.39216 22.4315C6.37698 22.5416 6.38412 22.6535 6.41316 22.7607C6.44219 22.8679 6.49253 22.9682 6.56116 23.0555C6.6262 23.1413 6.70865 23.2124 6.80309 23.2641C6.89753 23.3158 7.00183 23.347 7.10916 23.3555C7.13216 23.3555 7.15616 23.3615 7.17916 23.3615C7.37104 23.3603 7.5561 23.2901 7.70057 23.1638C7.84504 23.0375 7.9393 22.8635 7.96616 22.6735C8.2977 19.288 8.11089 15.8717 7.41216 12.5425C7.27596 11.9525 7.25807 11.3413 7.35951 10.7444C7.46095 10.1474 7.67972 9.57644 8.00316 9.06452Z" fill="black"/>
  <path d="M15.7087 19.8185H15.6837C15.4721 19.8266 15.2722 19.9183 15.1281 20.0735C14.9839 20.2288 14.9072 20.4348 14.9147 20.6465C14.9294 21.3242 14.8785 22.0017 14.7627 22.6695C14.7244 22.8612 14.757 23.0603 14.8545 23.2297C14.952 23.3992 15.1077 23.5274 15.2927 23.5905C15.3741 23.616 15.4586 23.6298 15.5437 23.6315C15.729 23.6317 15.9084 23.5671 16.051 23.449C16.1936 23.3308 16.2905 23.1665 16.3247 22.9845C16.4631 22.1923 16.5237 21.3885 16.5057 20.5845C16.5008 20.3776 16.4142 20.1809 16.2649 20.0375C16.1157 19.894 15.9158 19.8153 15.7087 19.8185Z" fill="black"/>
  <path d="M14.3753 9.20453C13.7391 8.59854 12.8929 8.26238 12.0143 8.26653C11.4919 8.2458 10.9714 8.34238 10.4912 8.54917C10.011 8.75597 9.58323 9.06772 9.23931 9.46153C8.87354 9.95786 8.62616 10.5313 8.5161 11.1379C8.40604 11.7446 8.43621 12.3683 8.60431 12.9615C9.30776 16.325 9.46678 19.7796 9.07531 23.1935C9.04919 23.4029 9.10684 23.6141 9.23569 23.7812C9.36455 23.9482 9.55418 24.0576 9.76331 24.0855C9.79642 24.0903 9.82987 24.0923 9.86331 24.0915C10.058 24.0914 10.246 24.0202 10.392 23.8913C10.538 23.7624 10.632 23.5847 10.6563 23.3915C11.0714 19.8062 10.909 16.1775 10.1753 12.6435C10.0661 12.2809 10.0363 11.899 10.0881 11.5238C10.1399 11.1486 10.272 10.789 10.4753 10.4695C10.6706 10.26 10.9099 10.0965 11.1761 9.99065C11.4422 9.88482 11.7285 9.83936 12.0143 9.85753C13.4713 9.85753 14.0603 11.4665 14.2473 12.1575C14.7138 14.2171 14.9386 16.3239 14.9173 18.4355C14.9207 18.6454 15.0065 18.8456 15.1562 18.9928C15.3058 19.1401 15.5074 19.2226 15.7173 19.2225H15.7293C15.9392 19.2191 16.1394 19.1333 16.2866 18.9837C16.4338 18.834 16.5163 18.6325 16.5163 18.4225C16.5337 16.1791 16.2891 13.9412 15.7873 11.7545C15.5647 10.7891 15.0754 9.90556 14.3753 9.20453Z" fill="black"/>
  <path d="M12.6613 11.5365C12.6016 11.3891 12.4994 11.2627 12.3675 11.1737C12.2357 11.0846 12.0804 11.0369 11.9213 11.0365C11.8186 11.0381 11.7171 11.0578 11.6213 11.0945C11.4262 11.1761 11.2713 11.3316 11.1905 11.5271C11.1098 11.7225 11.1097 11.942 11.1903 12.1375C11.6909 13.6993 11.9677 15.3241 12.0123 16.9635C12.1535 19.0927 12.1143 21.23 11.8953 23.3525C11.8834 23.457 11.8921 23.5628 11.9211 23.6639C11.9501 23.7649 11.9988 23.8593 12.0643 23.9415C12.1293 24.0238 12.2103 24.092 12.3024 24.142C12.3946 24.192 12.4959 24.2228 12.6003 24.2325C12.629 24.2374 12.6581 24.2394 12.6873 24.2385C12.8837 24.238 13.073 24.1653 13.2193 24.0342C13.3655 23.9031 13.4584 23.7227 13.4803 23.5275C13.7106 21.2849 13.7497 19.0268 13.5973 16.7775C13.5462 14.9938 13.2308 13.2276 12.6613 11.5365Z" fill="black"/>
  </svg>
  