<?xml version="1.0" encoding="UTF-8"?>
<svg width="22" height="21" viewBox="0 0 22 21" fill="none" xmlns="http://www.w3.org/2000/svg">
  <path
    d="M19.6598 1.67239H17.568V2.92762C17.5676 3.03834 17.5235 3.14441 17.4452 3.2227C17.3669 3.30099 17.2608 3.34515 17.1501 3.34554H16.3135C16.2028 3.34515 16.0967 3.30099 16.0185 3.2227C15.9402 3.14441 15.896 3.03834 15.8956 2.92762V1.67239H5.85601V2.92762C5.85562 3.03834 5.81146 3.14441 5.73317 3.2227C5.65488 3.30099 5.54881 3.34515 5.43809 3.34554H4.60152C4.49067 3.34534 4.38441 3.30127 4.30596 3.22296C4.22751 3.14465 4.18326 3.03847 4.18286 2.92762V1.67239H2.0918C1.53751 1.67396 1.00636 1.89485 0.614409 2.2868C0.22246 2.67875 0.0015697 3.2099 0 3.7642V17.9859C0.00176579 18.5401 0.222742 19.0711 0.61467 19.4628C1.0066 19.8546 1.53763 20.0754 2.0918 20.077H19.6598C20.214 20.0754 20.745 19.8546 21.137 19.4628C21.5289 19.0711 21.7499 18.5401 21.7516 17.9859V3.7642C21.7501 3.2099 21.5292 2.67875 21.1372 2.2868C20.7453 1.89485 20.2141 1.67396 19.6598 1.67239ZM20.0785 17.3583C20.0777 17.6354 19.9673 17.9008 19.7714 18.0968C19.5755 18.2927 19.31 18.4031 19.033 18.4038H2.71867C2.44162 18.4031 2.17615 18.2927 1.98024 18.0968C1.78434 17.9008 1.67393 17.6354 1.67314 17.3583V7.94706C1.67354 7.83621 1.7178 7.73003 1.79625 7.65172C1.8747 7.57341 1.98096 7.52934 2.0918 7.52915H19.6598C19.7708 7.52934 19.8772 7.57351 19.9556 7.65198C20.0341 7.73046 20.0783 7.83683 20.0785 7.9478V17.3583Z"
    fill="#BBBBBB" />
  <path
    d="M5.85674 0.417915C5.85635 0.307197 5.81219 0.201127 5.7339 0.122837C5.65561 0.044548 5.54954 0.000391923 5.43882 0H4.60225C4.49141 0.00019584 4.38514 0.0442651 4.30669 0.122576C4.22824 0.200886 4.18399 0.307069 4.18359 0.417915V1.6724H5.85674V0.417915Z"
    fill="#BBBBBB" />
  <path
    d="M17.5679 0.417915C17.5675 0.307197 17.5234 0.201127 17.4451 0.122837C17.3668 0.044548 17.2607 0.000391923 17.15 0H16.3134C16.2026 0.000392899 16.0964 0.0446513 16.0181 0.123101C15.9398 0.201551 15.8957 0.307812 15.8955 0.418658V1.6724H17.5679V0.417915Z"
    fill="#BBBBBB" />
</svg>
  