<?xml version="1.0" encoding="UTF-8"?>
<svg width="13" height="13" viewBox="0 0 13 13" fill="none" xmlns="http://www.w3.org/2000/svg">
  <path
    d="M0.00014159 6.49377C-0.00150447 6.42351 0.0112166 6.35364 0.0375263 6.28845C0.063836 6.22327 0.103181 6.16413 0.153155 6.11466C0.251963 6.02013 0.383586 5.96753 0.520386 5.9679H1.76897C1.83601 5.96607 1.90265 5.97879 1.96429 6.00518C2.02593 6.03157 2.0811 6.07101 2.126 6.12077C2.21577 6.22402 2.2657 6.35589 2.26683 6.49264C2.26795 6.6294 2.22018 6.76206 2.13213 6.86677C2.0876 6.917 2.03249 6.95676 1.97076 6.98319C1.90903 7.00962 1.84221 7.02207 1.77509 7.01964H0.526507C0.458077 7.02066 0.390168 7.00762 0.326995 6.98132C0.263821 6.95503 0.206734 6.91604 0.159275 6.86677C0.108612 6.81879 0.0683469 6.76093 0.0409742 6.69677C0.0136016 6.63261 -0.00029617 6.56352 0.00014159 6.49377ZM1.75061 10.7313C1.75072 10.594 1.80075 10.4615 1.89138 10.3583L2.7911 9.4839C2.83785 9.43619 2.89424 9.39897 2.9565 9.37473C3.01876 9.35048 3.08548 9.33975 3.15221 9.34326C3.28837 9.3401 3.42029 9.39063 3.51944 9.4839C3.56733 9.52822 3.6052 9.58223 3.63053 9.64233C3.65586 9.70244 3.66806 9.76725 3.66634 9.83244C3.66806 9.97664 3.61566 10.1163 3.51944 10.2238L2.65237 11.09C2.54975 11.1844 2.4154 11.2367 2.27596 11.2367C2.13652 11.2367 2.00216 11.1844 1.89955 11.09C1.85174 11.0434 1.81389 10.9876 1.78829 10.9259C1.7627 10.8643 1.74988 10.7981 1.75061 10.7313ZM1.75061 2.26847C1.75072 2.13119 1.80075 1.99864 1.89138 1.89547C1.99861 1.79797 2.13812 1.74353 2.2831 1.7426C2.41807 1.74231 2.54776 1.79501 2.64421 1.88935L3.51944 2.78822C3.56809 2.83455 3.60634 2.89066 3.63166 2.95285C3.65698 3.01504 3.6688 3.0819 3.66634 3.14899C3.66802 3.2169 3.65587 3.28445 3.63062 3.34752C3.60538 3.4106 3.56757 3.46789 3.51949 3.51593C3.47141 3.56396 3.41406 3.60173 3.35093 3.62695C3.28779 3.65217 3.22019 3.66431 3.15221 3.66263C3.08505 3.66509 3.01814 3.65328 2.95589 3.62799C2.89364 3.60269 2.83747 3.56448 2.7911 3.51588L1.8975 2.64147C1.84905 2.59244 1.81105 2.53411 1.78581 2.47C1.76056 2.40589 1.74859 2.33733 1.75061 2.26847ZM3.31135 6.49377C3.30743 5.93484 3.45551 5.38534 3.73978 4.90393C4.0202 4.41894 4.42336 4.01616 4.9088 3.73601C5.33373 3.4881 5.81104 3.34343 6.30222 3.31369C6.7934 3.28395 7.2847 3.36997 7.73649 3.5648C8.11547 3.72572 8.45976 3.95827 8.75045 4.24965C9.34427 4.8486 9.67844 5.65687 9.68078 6.49989C9.68552 7.06085 9.53742 7.61254 9.25234 8.09584C8.97228 8.57744 8.57149 8.97785 8.08944 9.25765C7.60383 9.53805 7.05286 9.68568 6.49198 9.68568C5.9311 9.68568 5.38013 9.53805 4.89452 9.25765C4.41248 8.97785 4.01169 8.57744 3.73162 8.09584C3.45536 7.60706 3.31056 7.0551 3.31135 6.49377ZM4.35184 6.49377C4.35075 7.06608 4.577 7.61544 4.98091 8.02127C5.38483 8.4271 5.93342 8.65624 6.50626 8.6584C7.08036 8.65665 7.63044 8.42803 8.0364 8.02247C8.44234 7.6169 8.67118 7.06733 8.67293 6.49377C8.67583 6.21192 8.62085 5.93246 8.51136 5.67268C8.40188 5.4129 8.24022 5.17831 8.03639 4.98342C7.83694 4.78133 7.59846 4.62183 7.33543 4.51462C7.07239 4.4074 6.7903 4.3547 6.50626 4.35972C6.22405 4.35476 5.94381 4.40753 5.68277 4.51479C5.42174 4.62205 5.18542 4.78153 4.98837 4.98342C4.78344 5.17747 4.62105 5.41189 4.51148 5.67187C4.40191 5.93185 4.34755 6.21172 4.35184 6.49377ZM5.9799 11.2511C5.97773 11.1825 5.99026 11.1144 6.01665 11.0511C6.04305 10.9878 6.08268 10.9309 6.13291 10.8842C6.23108 10.7887 6.36312 10.7359 6.50014 10.7374C6.56907 10.7354 6.6377 10.7474 6.70187 10.7726C6.76604 10.7978 6.82442 10.8358 6.87349 10.8842C6.92175 10.9321 6.95967 10.9893 6.98494 11.0524C7.0102 11.1155 7.02226 11.1831 7.02039 11.2511V12.4679C7.02203 12.5382 7.00931 12.608 6.983 12.6732C6.95669 12.7384 6.91735 12.7975 6.86737 12.847C6.81991 12.8963 6.76283 12.9353 6.69965 12.9616C6.63648 12.9879 6.56857 13.0009 6.50014 12.9999C6.43164 13.0015 6.36356 12.9887 6.3003 12.9623C6.23705 12.936 6.18002 12.8967 6.13291 12.847C6.08294 12.7975 6.04359 12.7384 6.01728 12.6732C5.99097 12.608 5.97825 12.5382 5.9799 12.4679V11.2511ZM5.9799 1.77317V0.525756C5.97887 0.457391 5.99193 0.389545 6.01825 0.326432C6.04457 0.263318 6.0836 0.206284 6.13291 0.15887C6.18094 0.108254 6.23886 0.0680273 6.30308 0.0406804C6.3673 0.0133335 6.43645 -0.000550913 6.50626 -0.000113565C6.57477 -0.00169436 6.64285 0.0110933 6.7061 0.0374243C6.76935 0.0637553 6.82638 0.103044 6.87349 0.152756C6.9228 0.200169 6.96183 0.257203 6.98815 0.320317C7.01447 0.383431 7.02753 0.451276 7.02651 0.519642V1.77317C7.02834 1.84014 7.01561 1.90672 6.98919 1.9683C6.96278 2.02988 6.9233 2.085 6.87349 2.12986C6.82464 2.17642 6.76703 2.21283 6.70399 2.23697C6.64095 2.26111 6.57374 2.27251 6.50626 2.2705C6.37031 2.27252 6.2388 2.22216 6.13903 2.12986C6.08902 2.08483 6.04901 2.02982 6.0216 1.96838C5.99419 1.90694 5.97998 1.84044 5.9799 1.77317ZM9.35843 9.83447C9.35802 9.77092 9.37025 9.70792 9.39441 9.64913C9.41856 9.59034 9.45416 9.53693 9.49914 9.49199C9.54412 9.44705 9.59759 9.41148 9.65643 9.38735C9.71528 9.36322 9.77834 9.351 9.84195 9.35141C9.9781 9.34826 10.11 9.39878 10.2092 9.49205L11.1028 10.3665C11.1985 10.4669 11.2513 10.6007 11.2497 10.7395C11.2509 10.8064 11.2386 10.8729 11.2133 10.9349C11.1881 10.9969 11.1505 11.0532 11.1028 11.1002C11.0024 11.1916 10.8714 11.2423 10.7355 11.2423C10.5997 11.2423 10.4687 11.1916 10.3683 11.1002L9.50124 10.234C9.40614 10.1229 9.3553 9.98065 9.35843 9.83447ZM9.35843 3.15918C9.35515 3.09254 9.36599 3.02595 9.39025 2.96378C9.41451 2.90161 9.45163 2.84526 9.4992 2.79841L10.3663 1.89954C10.4627 1.80521 10.5924 1.7525 10.7274 1.75279C10.796 1.75062 10.8642 1.76314 10.9276 1.78951C10.9909 1.81588 11.0479 1.85548 11.0946 1.90566C11.1439 1.95307 11.183 2.0101 11.2093 2.07322C11.2356 2.13633 11.2487 2.20418 11.2476 2.27254C11.2501 2.34238 11.2384 2.41199 11.2131 2.47716C11.1879 2.54232 11.1496 2.60169 11.1007 2.65166L10.2092 3.52199C10.1098 3.61558 9.97854 3.66803 9.84195 3.66875C9.77759 3.67053 9.71361 3.65833 9.65444 3.63299C9.59526 3.60765 9.54229 3.56978 9.4992 3.52199C9.40584 3.42293 9.35527 3.29113 9.35843 3.15511V3.15918ZM10.7396 6.49377C10.738 6.35324 10.7906 6.21747 10.8865 6.11466C10.9315 6.06768 10.9857 6.03042 11.0457 6.00517C11.1057 5.97993 11.1703 5.96725 11.2354 5.9679H12.4738C12.578 5.9664 12.6802 5.99625 12.7672 6.05359C12.8542 6.11093 12.9219 6.1931 12.9615 6.28941C13.0012 6.38571 13.0108 6.4917 12.9893 6.59358C12.9678 6.69546 12.9162 6.78852 12.841 6.86066C12.7935 6.90992 12.7365 6.94891 12.6733 6.97521C12.6101 7.00151 12.5422 7.01455 12.4738 7.01353H11.2374C11.1703 7.01595 11.1035 7.0035 11.0418 6.97707C10.98 6.95064 10.9249 6.91089 10.8804 6.86066C10.788 6.76099 10.7376 6.6296 10.7396 6.49377Z"
    fill="#FFB74D" />
</svg>
  