<?xml version="1.0" encoding="UTF-8"?>
<svg width="38" height="38" viewBox="0 0 38 38" fill="none" xmlns="http://www.w3.org/2000/svg">
  <path
    d="M19 0C8.512 0 0 8.512 0 19C0 29.488 8.512 38 19 38C29.488 38 38 29.488 38 19C38 8.512 29.488 0 19 0ZM13.851 27.151L7.03 20.33C6.289 19.589 6.289 18.392 7.03 17.651C7.771 16.91 8.968 16.91 9.709 17.651L15.2 23.123L28.272 10.051C29.013 9.31 30.21 9.31 30.951 10.051C31.692 10.792 31.692 11.989 30.951 12.73L16.53 27.151C15.808 27.892 14.592 27.892 13.851 27.151Z"
    fill="white" />
</svg>
  