<?xml version="1.0" encoding="UTF-8"?>
<svg width="10" height="11" viewBox="0 0 10 11" fill="none" xmlns="http://www.w3.org/2000/svg">
  <path
    d="M7.83441 3.73376C7.83441 3.00872 7.54639 2.31338 7.03371 1.8007C6.52103 1.28802 5.82568 1 5.10064 1C4.37561 1 3.68026 1.28802 3.16758 1.8007C2.6549 2.31338 2.36688 3.00872 2.36688 3.73376C2.36688 6.92315 1 7.83441 1 7.83441H9.20129C9.20129 7.83441 7.83441 6.92315 7.83441 3.73376Z"
    stroke="#21357C" stroke-linecap="round" stroke-linejoin="round" />
  <path
    d="M5.88995 9.65688C5.80984 9.79497 5.69487 9.90959 5.55653 9.98927C5.41819 10.0689 5.26135 10.1109 5.10171 10.1109C4.94207 10.1109 4.78523 10.0689 4.64689 9.98927C4.50856 9.90959 4.39358 9.79497 4.31348 9.65688"
    stroke="#21357C" stroke-linecap="round" stroke-linejoin="round" />
</svg>
  