<?xml version="1.0" encoding="UTF-8"?>
<svg width="24" height="25" viewBox="0 0 24 25" fill="none" xmlns="http://www.w3.org/2000/svg">
  <path
    d="M24.0055 4.36773H21.0048V7.38635H19.6198V4.36773H16.6191V3.03549H19.6198V0H21.0048V3.03549H24.0055V4.36773Z"
    fill="#2ADEF5" />
  <path
    d="M18.1518 8.00711H16.2204V9.16606C16.2201 9.26828 16.1793 9.36622 16.107 9.4385C16.0347 9.51078 15.9368 9.55155 15.8346 9.55191H15.0622C14.96 9.55155 14.862 9.51078 14.7897 9.4385C14.7175 9.36622 14.6767 9.26828 14.6763 9.16606V8.00711H5.40681V9.16606C5.40645 9.26828 5.36568 9.36622 5.2934 9.4385C5.22112 9.51078 5.12318 9.55155 5.02096 9.55191H4.24855C4.14621 9.55173 4.0481 9.51104 3.97567 9.43874C3.90324 9.36644 3.86237 9.2684 3.86201 9.16606V8.00711H1.93135C1.41957 8.00856 0.929164 8.21251 0.56728 8.57439C0.205395 8.93627 0.0014493 9.42668 0 9.93846V23.0693C0.00163034 23.581 0.205656 24.0712 0.567521 24.4329C0.929386 24.7947 1.41969 24.9985 1.93135 25H18.1518C18.6635 24.9985 19.1538 24.7947 19.5156 24.4329C19.8775 24.0712 20.0815 23.581 20.0831 23.0693V9.93846C20.0817 9.42668 19.8777 8.93627 19.5159 8.57439C19.154 8.21251 18.6636 8.00856 18.1518 8.00711ZM18.5383 22.4898C18.5376 22.7456 18.4357 22.9907 18.2548 23.1716C18.0739 23.3525 17.8288 23.4544 17.573 23.4552H2.51013C2.25434 23.4544 2.00922 23.3525 1.82834 23.1716C1.64747 22.9907 1.54553 22.7456 1.5448 22.4898V13.8005C1.54517 13.6981 1.58603 13.6001 1.65846 13.5278C1.73089 13.4555 1.829 13.4148 1.93135 13.4146H18.1518C18.2543 13.4148 18.3525 13.4556 18.4249 13.528C18.4974 13.6005 18.5382 13.6987 18.5383 13.8012V22.4898Z"
    fill="white" />
  <path
    d="M5.40809 6.84887C5.40772 6.74665 5.36695 6.64871 5.29467 6.57643C5.22239 6.50414 5.12445 6.46337 5.02223 6.46301H4.24983C4.14748 6.46319 4.04937 6.50388 3.97694 6.57619C3.90451 6.64849 3.86364 6.74653 3.86328 6.84887V8.00713H5.40809V6.84887Z"
    fill="white" />
  <path
    d="M16.2209 6.84887C16.2205 6.74665 16.1797 6.64871 16.1075 6.57643C16.0352 6.50414 15.9372 6.46337 15.835 6.46301H15.0626C14.9603 6.46338 14.8622 6.50424 14.7899 6.57667C14.7176 6.6491 14.6769 6.74721 14.6768 6.84956V8.00713H16.2209V6.84887Z"
    fill="white" />
</svg>
  