<?xml version="1.0" encoding="UTF-8"?>
<svg width="24" height="24" viewBox="0 0 24 24" fill="none" xmlns="http://www.w3.org/2000/svg">
  <path
    d="M6.80524 18.8052C5.91156 18.1231 5.161 17.2715 4.59642 16.2993C4.03183 15.327 3.66427 14.2531 3.51472 13.1388C3.36517 12.0245 3.43657 10.8916 3.72483 9.80493C4.01309 8.71822 4.51258 7.69892 5.19476 6.80525C5.87695 5.91157 6.72848 5.16101 7.70073 4.59642C8.67298 4.03183 9.74692 3.66427 10.8612 3.51473C11.9755 3.36518 13.1084 3.43657 14.1951 3.72484C15.2818 4.0131 16.3011 4.51258 17.1948 5.19477C18.0884 5.87695 18.839 6.72848 19.4036 7.70073C19.9682 8.67299 20.3357 9.74692 20.4853 10.8612C20.6348 11.9755 20.5634 13.1084 20.2752 14.1951C19.9869 15.2818 19.4874 16.3011 18.8052 17.1948C18.1231 18.0884 17.2715 18.839 16.2993 19.4036C15.327 19.9682 14.2531 20.3357 13.1388 20.4853C12.0245 20.6348 10.8916 20.5634 9.80492 20.2752C8.71821 19.9869 7.69892 19.4874 6.80524 18.8052L6.80524 18.8052Z"
    stroke="#2ADEF5" stroke-width="2" />
  <path
    d="M15.6642 9.62508C15.4751 9.45831 15.1915 9.45831 15.0025 9.62508L11 13.1567L8.99747 11.3898C8.80846 11.223 8.52486 11.223 8.33585 11.3898L7.66919 11.978C7.56162 12.073 7.5 12.2095 7.5 12.353C7.5 12.4964 7.56162 12.633 7.66919 12.7279L10.6692 15.3749C10.8582 15.5417 11.1418 15.5417 11.3308 15.3749L16.3308 10.9632C16.4384 10.8682 16.5 10.7317 16.5 10.5882C16.5 10.4448 16.4384 10.3082 16.3308 10.2133L15.6642 9.62508Z"
    fill="#2ADEF5" stroke="#2ADEF5" stroke-linejoin="round" />
</svg>
  