<?xml version="1.0" encoding="UTF-8"?>
<svg width="38" height="38" viewBox="0 0 38 38" fill="none" xmlns="http://www.w3.org/2000/svg">
  <path
    d="M19 0C8.493 0 0 8.493 0 19C0 29.507 8.493 38 19 38C29.507 38 38 29.507 38 19C38 8.493 29.507 0 19 0ZM27.17 27.17C26.429 27.911 25.232 27.911 24.491 27.17L19 21.679L13.509 27.17C12.768 27.911 11.571 27.911 10.83 27.17C10.089 26.429 10.089 25.232 10.83 24.491L16.321 19L10.83 13.509C10.089 12.768 10.089 11.571 10.83 10.83C11.571 10.089 12.768 10.089 13.509 10.83L19 16.321L24.491 10.83C25.232 10.089 26.429 10.089 27.17 10.83C27.911 11.571 27.911 12.768 27.17 13.509L21.679 19L27.17 24.491C27.892 25.213 27.892 26.429 27.17 27.17Z"
    fill="white" />
</svg>
  