<?xml version="1.0" encoding="UTF-8"?>
<svg width="43" height="43" viewBox="0 0 43 43" fill="none" xmlns="http://www.w3.org/2000/svg">
  <path
    d="M38.2356 31.988C38.2356 32.3325 38.0987 32.6628 37.8552 32.9064C37.6116 33.15 37.2813 33.2868 36.9368 33.2868H33.2813V36.9421C33.2813 37.2866 33.1444 37.6169 32.9009 37.8605C32.6573 38.104 32.3269 38.2409 31.9825 38.2409C31.638 38.2409 31.3077 38.104 31.0641 37.8605C30.8205 37.6169 30.6837 37.2866 30.6837 36.9421V33.2868H27.0258C26.6814 33.2868 26.351 33.15 26.1075 32.9064C25.8639 32.6628 25.727 32.3325 25.727 31.988C25.727 31.6436 25.8639 31.3132 26.1075 31.0697C26.351 30.8261 26.6814 30.6893 27.0258 30.6893H30.6837V27.0327C30.6837 26.6882 30.8205 26.3579 31.0641 26.1143C31.3077 25.8707 31.638 25.7339 31.9825 25.7339C32.3269 25.7339 32.6573 25.8707 32.9009 26.1143C33.1444 26.3579 33.2813 26.6882 33.2813 27.0327V30.6893H36.9368C37.2813 30.6893 37.6116 30.8261 37.8552 31.0697C38.0987 31.3132 38.2356 31.6436 38.2356 31.988ZM35.8718 36.754C36.183 36.4949 36.4699 36.208 36.729 35.8968H35.8718V36.754ZM38.2356 10.0771V28.338C37.8208 28.1807 37.3804 28.1014 36.9368 28.1042H35.8718V27.0392C35.8725 26.5273 35.7722 26.0203 35.5766 25.5473C35.381 25.0743 35.0941 24.6445 34.7321 24.2825C34.3702 23.9206 33.9404 23.6336 33.4673 23.438C32.9943 23.2425 32.4873 23.1422 31.9755 23.1428C31.122 23.132 30.2927 23.4268 29.6377 23.9741L26.8323 21.7142C26.1448 21.1475 25.2816 20.8375 24.3906 20.8375C23.4996 20.8375 22.6364 21.1475 21.9489 21.7142L6.83113 33.8707C7.17872 34.4158 7.65892 34.8638 8.22679 35.1727C8.79466 35.4816 9.43163 35.6414 10.0781 35.6371H25.6634C26.0911 35.8153 26.5509 35.9037 27.0141 35.8968H28.0791V36.9359C28.0764 37.3795 28.1556 37.8198 28.3129 38.2346H10.0781C8.7989 38.2307 7.54941 37.8489 6.48649 37.1372C5.42357 36.4255 4.59461 35.4156 4.1037 34.2344C4.05837 34.1617 4.0234 34.083 3.99979 34.0006C3.98991 33.9904 3.98245 33.9781 3.97796 33.9646C3.97346 33.9511 3.97205 33.9368 3.97382 33.9227C3.71021 33.2257 3.5781 32.4859 3.58419 31.7407V10.0771C3.58487 8.35507 4.26927 6.70372 5.48696 5.48603C6.70465 4.26834 8.356 3.58394 10.0781 3.58325H31.7417C33.4638 3.58394 35.1151 4.26834 36.3328 5.48603C37.5505 6.70372 38.2349 8.35507 38.2356 10.0771ZM18.1824 14.519C18.1876 13.6907 17.9467 12.8796 17.4903 12.1885C17.0339 11.4973 16.3826 10.9573 15.6189 10.6368C14.8552 10.3162 14.0135 10.2297 13.2005 10.3881C12.3876 10.5466 11.64 10.9428 11.0525 11.5266C10.4651 12.1104 10.0642 12.8556 9.90068 13.6675C9.7372 14.4794 9.81848 15.3216 10.1342 16.0873C10.45 16.853 10.986 17.5077 11.6743 17.9684C12.3626 18.4291 13.1721 18.675 14.0004 18.675C15.1053 18.6758 16.1655 18.239 16.9492 17.4602C17.7329 16.6813 18.1763 15.6238 18.1824 14.519Z"
    fill="#C2C2C2" />
</svg>
  